<svg width="45" height="39" viewBox="0 0 45 39" fill="none" xmlns="http://www.w3.org/2000/svg">
<path d="M15.8941 1.40374C12.0133 1.40374 8.52709 2.12741 5.96195 3.37703C3.46241 4.56093 1.75212 6.27124 1.68652 8.31012V8.37575V8.50744V14.1642V14.2298V20.2812V20.3469V25.938C1.68652 28.043 3.39681 29.8189 5.96195 31.0685C8.52709 32.3181 12.0133 33.0418 15.8941 33.0418C17.3409 33.0418 18.7226 32.9101 20.0378 32.7128C22.4718 35.7387 26.2209 37.7119 30.3646 37.7119C37.6659 37.7119 43.5852 31.7922 43.5852 24.4249C43.5852 17.1234 37.6655 11.1378 30.3646 11.1378H30.0356V8.50659V8.3749V8.30927V8.24364C29.9039 6.27036 28.2597 4.56016 25.7601 3.31055C23.1954 2.12665 19.7749 1.40332 15.8941 1.40332L15.8941 1.40374ZM15.8941 2.45598C19.5775 2.45598 22.932 3.17965 25.2999 4.2975C27.6022 5.41582 28.9833 6.86267 29.049 8.37572V8.44135V8.50697C29.049 9.55922 28.3914 10.6775 27.1415 11.5986C25.563 11.9932 24.0499 12.7169 22.8005 13.6374C20.7616 14.2294 18.4594 14.5584 15.9599 14.5584C12.2107 14.5584 8.85589 13.8348 6.48801 12.7169C4.25189 11.6647 2.93624 10.283 2.80458 8.83608V8.57313V8.44143C2.8702 6.99456 4.18584 5.54722 6.55372 4.42892C8.85635 3.17976 12.2109 2.45609 15.8943 2.45609L15.8941 2.45598ZM2.73978 11.2043C3.46344 12.1253 4.64732 12.9802 5.96298 13.6383C8.52812 14.8879 12.0143 15.6116 15.8951 15.6116C17.671 15.6116 19.3813 15.4799 20.9598 15.1513C19.5785 16.5982 18.4602 18.3085 17.8682 20.2161C17.2106 20.2817 16.5526 20.2817 15.895 20.2817C12.1458 20.2817 8.85704 19.558 6.42309 18.4402C4.05521 17.3219 2.73967 15.809 2.73967 14.2964V14.2307L2.73978 11.2043ZM30.4312 12.191C37.2062 12.191 42.6003 17.6505 42.6003 24.4254C42.6003 31.2004 37.1409 36.6599 30.4312 36.6599C23.7223 36.6599 18.2621 31.2004 18.2621 24.4254C18.2621 17.7164 23.6558 12.191 30.4312 12.191ZM2.73978 16.9929C3.46344 17.9138 4.64732 18.7688 5.96298 19.4268C8.52812 20.6764 12.0143 21.4001 15.8951 21.4001C16.4871 21.4001 17.0134 21.4001 17.5393 21.3345C17.2764 22.3211 17.1447 23.4394 17.1447 24.4917C17.1447 25.1493 17.2103 25.8073 17.2764 26.465C16.8161 26.5306 16.3554 26.5306 15.8295 26.5306C12.0804 26.5306 8.79157 25.8069 6.35763 24.6891C3.98975 23.5707 2.6742 22.0578 2.6742 20.4792V20.4136L2.67376 16.9929L2.73978 16.9929ZM2.73978 23.1098C3.46344 24.0308 4.64732 24.8858 5.96298 25.5438C8.52812 26.7934 12.0143 27.5171 15.8951 27.5171C16.4214 27.5171 16.9473 27.5171 17.5393 27.4515C17.934 29.03 18.5259 30.4775 19.4469 31.7926C18.3286 31.9243 17.2108 32.0555 15.9607 32.0555C12.2116 32.0555 8.85669 31.3319 6.48881 30.214C4.12092 29.0957 2.80538 27.5828 2.80538 26.0702L2.73978 23.1098Z" fill="#D9BBFF" stroke="#D9BBFF" stroke-width="1.5"/>
</svg>
