<svg width="44" height="48" viewBox="0 0 44 48" fill="none" xmlns="http://www.w3.org/2000/svg">
<path d="M22.4292 1.33108C22.149 1.33107 21.9219 1.55821 21.9221 1.83812L21.9222 5.89552C21.9222 6.17568 22.1493 6.40281 22.4292 6.40257C22.7094 6.40257 22.9365 6.17544 22.9362 5.89552L22.9362 1.83813C22.9362 1.55797 22.7091 1.33083 22.4292 1.33108ZM8.08666 7.27414C7.95659 7.27414 7.82126 7.31791 7.72196 7.41672C7.52384 7.61483 7.52385 7.94753 7.72196 8.14564L10.5907 11.0143C10.7888 11.2125 11.1217 11.2122 11.3196 11.0143C11.5174 10.8165 11.5174 10.4833 11.3196 10.2854L8.45088 7.41672C8.35182 7.31766 8.21624 7.27414 8.08641 7.27389L8.08666 7.27414ZM36.7728 7.27434C36.6432 7.27434 36.5074 7.31811 36.4081 7.41692L33.5394 10.2856C33.3413 10.4837 33.3416 10.8166 33.5394 11.0145C33.7375 11.2126 34.0702 11.2126 34.2683 11.0145L37.137 8.14585C37.3351 7.94773 37.3351 7.61504 37.137 7.41692C37.0379 7.31786 36.9023 7.27434 36.7723 7.27434L36.7728 7.27434ZM22.4298 9.44517C15.9825 9.44512 9.75123 14.4523 9.75128 21.5373C9.75131 26.067 11.4816 28.8699 13.1431 31.2208C14.8043 33.5714 16.3444 35.4507 16.3445 38.3525L16.3448 44.4383C16.3448 45.8817 17.5377 46.974 18.8805 46.9741L25.9807 46.9741C27.3235 46.9741 28.5165 45.8818 28.5165 44.4384L28.5164 38.3528C28.5164 35.4512 30.0565 33.5718 31.7177 31.2211C33.3791 28.8703 35.1094 26.0674 35.1094 21.5378C35.1093 14.4527 28.878 9.44546 22.4307 9.44542L22.4298 9.44517ZM22.4298 10.4593C28.3522 10.4593 34.0943 15.0488 34.0941 21.5373C34.0942 25.8138 32.528 28.3204 30.8929 30.634C29.344 32.8262 27.6875 34.8619 27.5172 37.8449L17.3428 37.8448C17.1725 34.8618 15.5163 32.8259 13.9671 30.6339C12.3318 28.3197 10.7657 25.8135 10.7656 21.5371C10.7656 15.0483 16.5075 10.4591 22.4298 10.4593ZM21.3522 13.0583C16.815 13.5876 13.3014 17.4495 13.3014 22.1232C13.3014 23.0567 13.4373 23.9535 13.6977 24.8017C13.7765 25.0591 14.0901 25.2292 14.3475 25.1504C14.6047 25.0714 14.759 24.758 14.6802 24.5006C14.4486 23.7461 14.3158 22.9539 14.3158 22.1234C14.3158 17.9576 17.4448 14.5273 21.4793 14.0564C21.7447 14.0357 21.9756 13.7833 21.9545 13.5176C21.886 13.1054 21.6731 13.0376 21.3524 13.0581L21.3522 13.0583ZM2.14418 21.6166C1.86401 21.6166 1.63688 21.8437 1.63713 22.1236C1.63714 22.4038 1.86427 22.6309 2.14418 22.6307L6.20158 22.6307C6.48174 22.6307 6.70888 22.4036 6.70863 22.1237C6.70862 21.8435 6.48149 21.6164 6.20157 21.6166L2.14418 21.6166ZM38.6595 21.6168C38.3793 21.6168 38.1522 21.844 38.1524 22.1239C38.1524 22.404 38.3796 22.6312 38.6595 22.6309L42.7169 22.631C42.997 22.631 43.2242 22.4038 43.2239 22.1239C43.2239 21.8438 42.9968 21.6166 42.7166 21.6166L38.6592 21.6166L38.6595 21.6168ZM17.3589 38.86L27.5018 38.8601L27.5018 41.9028L17.3589 41.9028L17.3589 38.86ZM17.3589 42.9174L27.5018 42.9175L27.5018 44.4388C27.5018 45.3264 26.7779 45.9602 25.9804 45.9602L18.8802 45.9602C18.0827 45.9602 17.3588 45.3263 17.3588 44.4388L17.3589 42.9174Z" fill="#D9BBFF" stroke="#D9BBFF" stroke-width="1.4"/>
</svg>
